<svg xmlns="http://www.w3.org/2000/svg" version="1.1" xmlns:xlink="http://www.w3.org/1999/xlink" viewBox="0 0 52.59115706772998 47.96088761275229"><g transform="matrix(0.8512725658112414,0,0,0.8512725658112414,25.40408822332925,40.67238804980339)"><g transform="matrix(1,0,0,1,0,0)" clip-path="url(#SvgjsClipPath16803)"><g clip-path="url(#SvgjsClipPath16801333a640e-0814-425b-917a-cc80c551ad73)"><path d=" M 12.498496844756932 -10.506257540778385 L 8.160602416673804 -10.506257540778385 L 8.160602416673804 -11.585998899332164 L 12.498496844756932 -11.585998899332164 C 14.204375533953662 -11.582746868147623 15.879830277830994 -12.03763378446611 17.349840231509457 -12.90314138931376 C 20.271587146012156 -14.623931513230307 22.067302892951158 -17.759836584329324 22.072624201575255 -21.1506617592165 C 22.062622358778828 -26.4318595792282 17.779703692059055 -30.708427431547776 12.498496844756804 -30.71059237063386 L 12.310784322232553 -30.71059237063386 C 12.104190936984327 -30.71091172980127 11.915756896377967 -30.828683005180253 11.824940146287272 -31.01424498059968 L 11.738970965803414 -31.19012688195651 C 11.731083885025082 -31.206689751591007 11.723985512324543 -31.223252621225505 11.717675847701852 -31.240604198937827 C 10.140533087001547 -35.485327546449426 6.095236638228304 -38.30603386589709 1.5670028859873426 -38.31847048941381 C -3.2506871219809206 -38.30630078864438 -7.483217736792396 -35.11841115435552 -8.825014747544161 -30.49133152499621 L -8.896787182626998 -30.238944940089553 C -8.976602669278908 -29.956611891986473 -9.26742175541516 -29.78982889800956 -9.551414887228582 -29.863519895040902 L -9.80459018021317 -29.928982665501064 C -10.13213452554598 -30.008955914229514 -10.468303480331963 -30.048162380193517 -10.805460730983619 -30.04571146102039 C -13.025142794854494 -30.05210500492619 -14.84869366432471 -28.294553965852327 -14.924094313429038 -26.076143705285425 L -14.931192686129581 -25.894740847383765 C -14.940716514406141 -25.67823140036534 -15.078514262458153 -25.488293963861175 -15.281379072687514 -25.412051503749787 L -15.44779647711033 -25.349743565600956 C -18.173370649704676 -24.272849810244743 -19.967914821794423 -21.644142521950247 -19.978135676184884 -18.71355379871162 C -19.974659848691264 -14.779785977064499 -16.787501506421147 -11.59121629488806 -12.85373560911728 -11.58599889933215 L -6.062959058971963 -11.58599889933215 L -6.062959058971963 -10.506257540778371 L -12.85373560911665 -10.506257540778371 C -17.382849813682835 -10.51321263149617 -21.05195672578897 -14.184436336051615 -21.056299618583008 -18.713553798711633 C -21.04304758680337 -22.028284765409012 -19.0484588852188 -25.013645494096565 -15.991216342737673 -26.294615842845182 C -15.80540704261151 -29.0207505939033 -13.535541341619048 -31.13464498190565 -10.803094606750062 -31.126241527652006 C -10.462798055644948 -31.127020777421663 -10.123191324586479 -31.095595271203972 -9.78881601865657 -31.032385266389845 C -8.231974299532943 -35.99911747792395 -3.6364149050856405 -39.38451289850017 1.5685803021429834 -39.39900055604543 C 6.480520244452645 -39.38541204608243 10.883468790558798 -36.36646189521667 12.666491665335325 -31.78954502110981 C 18.479209168887405 -31.69707254593186 23.145860756627716 -26.964105382997342 23.156309100517962 -21.1506617592165 C 23.150818450070002 -17.377439231151087 21.152975878419955 -13.887662286345972 17.901935885992355 -11.972465857470365 C 16.264802915392327 -11.008157289895014 14.398516586649901 -10.501745629534156 12.498496844756932 -10.506257540778385 Z" fill="#ba8437" transform="matrix(1,0,0,1,0,0)" fill-rule="nonzero"></path></g><g clip-path="url(#SvgjsClipPath16801333a640e-0814-425b-917a-cc80c551ad73)"><path d=" M 12.498496844756932 -14.51604940848285 L 8.239473224457122 -14.51604940848285 L 8.239473224457122 -15.596579475114467 L 12.498496844756932 -15.596579475114467 C 13.490490759462862 -15.594776706615619 14.464786960233429 -15.85925577034169 15.319705639166582 -16.362415018690577 C 17.014991584276604 -17.3616925423442 18.05649244508923 -19.18199493944546 18.058888793481575 -21.149873051138666 C 18.051929828300946 -24.21747808616574 15.562954908823375 -26.700454625486003 12.495342012445771 -26.700011794851566 L 12.495342012445771 -27.78054186148318 C 16.159047826973232 -27.780116316823523 19.13115652150999 -24.81435828189047 19.139418860113192 -21.1506617592165 C 19.13652945477774 -18.800267984257406 17.892622780874927 -16.626130234547094 15.867857753261664 -15.43252819492563 C 14.846897578127251 -14.831236692576763 13.683363699914725 -14.514751119898161 12.498496844756804 -14.51604940848285 Z" fill="#ba8437" transform="matrix(1,0,0,1,0,0)" fill-rule="nonzero"></path></g><g clip-path="url(#SvgjsClipPath16801333a640e-0814-425b-917a-cc80c551ad73)"><path d=" M -2.7740463744069963 -15.571340816623795 L -1.6935163077753828 -15.571340816623795 L -1.6935163077753828 -5.433287184154636 L -2.7740463744069963 -5.433287184154636 Z" fill="#ba8437" transform="matrix(1,0,0,1,0,0)" fill-rule="nonzero"></path></g><g clip-path="url(#SvgjsClipPath16801333a640e-0814-425b-917a-cc80c551ad73)"><path d=" M 3.7880048331660063 -15.571340816623795 L 4.86853489979762 -15.571340816623795 L 4.86853489979762 -5.433287184154636 L 3.7880048331660063 -5.433287184154636 Z" fill="#ba8437" transform="matrix(1,0,0,1,0,0)" fill-rule="nonzero"></path></g><g clip-path="url(#SvgjsClipPath16801333a640e-0814-425b-917a-cc80c551ad73)"><path d=" M 1.0440894303839663 -1.5 L -5.094425539392569 -7.63851496977653 C -5.305115944014103 -7.849705387911595 -5.305115944014103 -8.191582679061906 -5.094425539392569 -8.402773097196985 C -4.883235121257442 -8.613463501818536 -4.5413578301071915 -8.613463501818536 -4.330167411972067 -8.402773097196985 L 1.0440894303839663 -3.0277275467630815 L 6.4191349808179154 -8.402773097196985 C 6.63032539895304 -8.613463501818536 6.972202690103291 -8.613463501818536 7.183393108238416 -8.402773097196985 C 7.39408351285995 -8.191582679061906 7.39408351285995 -7.849705387911609 7.183393108238416 -7.63851496977653 Z" fill="#ba8437" transform="matrix(1,0,0,1,0,0)" fill-rule="nonzero"></path></g><g clip-path="url(#SvgjsClipPath16801333a640e-0814-425b-917a-cc80c551ad73)"><path d=" M -10.878810582221908 -13.049841091790746 C -10.878810582221908 -13.049841091790746 -15.83110860293717 -12.587658158180432 -17.48502944215356 -16.29221999976343 C -18.377296004220685 -18.31842145632356 -18.035275308854313 -20.67612902509849 -16.60404251921379 -22.36527219907977 C -15.724293614406255 -23.40164128095597 -14.502384348630107 -24.088563022994066 -13.159754343315816 -24.301550530160533 C -11.817124338001587 -24.514538037327004 -14.180342596032125 -26.70158921100724 -12.109195183641885 -28.05264614833567 C -12.109195183641885 -28.05264614833567 -10.773912407870103 -29.012503879058784 -8.268186844593712 -28.26244249703933 C -7.472344251577944 -32.758508467960944 -3.87643496959657 -36.23349336700848 0.6442144349224215 -36.87513470697888 C 5.16486383944148 -37.516776046949296 -7.9306197872810955 -33.90407137778088 -5.927301269584559 -25.95152782898778 C -5.927301269584559 -25.95152782898778 -8.523728261811794 -27.371202369087705 -9.903967398020074 -25.126539179574145 C -9.903967398020074 -25.126539179574145 -10.886697663000302 -23.378762079095583 -9.76121123593219 -22.230403117770297 C -11.270030254928994 -22.407865249093323 -12.75143129529634 -21.726834807806508 -13.599064742669018 -20.46606314765723 C -14.218941994645748 -19.564942571721794 -14.480998532207435 -18.465261114206903 -14.33414067120962 -17.381425855251212 C -14.244221970741785 -15.340782717577277 -12.848435541341182 -13.591031731439887 -10.878810582221908 -13.049841091790746 Z" fill="#cf9645" transform="matrix(1,0,0,1,0,0)" fill-rule="nonzero"></path></g></g><g><path d=" M 0.0228 0.05670000000000002 C 0.01395 0.05565000000000002 0.00495 0.04815000000000002 0.00495 0.036150000000000015 C 0.00495 0.01860000000000002 0.02355 0.00675000000000002 0.047400000000000005 0.00675000000000002 C 0.06375 0.00675000000000002 0.07965000000000001 0.012750000000000011 0.09285 0.020400000000000015 C 0.08745000000000001 0.044850000000000015 0.054450000000000005 0.07095000000000001 0.054450000000000005 0.09480000000000002 C 0.054450000000000005 0.10515000000000002 0.061950000000000005 0.11280000000000003 0.07275000000000001 0.11280000000000003 C 0.09300000000000001 0.11280000000000003 0.12435000000000002 0.07650000000000001 0.13155 0.06480000000000002 C 0.12855000000000003 0.07290000000000002 0.12135000000000001 0.09450000000000003 0.1107 0.11670000000000003 C 0.10845 0.11640000000000003 0.10635000000000001 0.11640000000000003 0.10425000000000001 0.11640000000000003 C 0.07155 0.11640000000000003 0.028050000000000002 0.13755000000000003 0.028050000000000002 0.16365000000000002 C 0.028050000000000002 0.17445000000000005 0.03615 0.18255000000000005 0.04905 0.18255000000000005 C 0.07635 0.18255000000000005 0.09825 0.15135000000000004 0.11340000000000001 0.12060000000000003 C 0.1218 0.12210000000000003 0.1305 0.12615000000000004 0.13185000000000002 0.13620000000000002 C 0.132 0.13725000000000004 0.13215000000000002 0.13770000000000002 0.13290000000000002 0.13770000000000002 C 0.13395 0.13770000000000002 0.13410000000000002 0.1365 0.13410000000000002 0.13485000000000003 C 0.13410000000000002 0.12465000000000002 0.12495 0.11940000000000002 0.11505000000000001 0.11745000000000003 C 0.1257 0.09510000000000002 0.13305 0.07365000000000002 0.13635 0.06480000000000002 C 0.14445000000000002 0.042900000000000015 0.1506 0.02640000000000002 0.15345 0.014100000000000015 C 0.1539 0.01230000000000002 0.15285 0.011400000000000007 0.15150000000000002 0.011400000000000007 C 0.1506 0.011400000000000007 0.1506 0.01200000000000001 0.15030000000000002 0.013200000000000017 C 0.14685 0.026550000000000018 0.13995000000000002 0.045150000000000017 0.13365000000000002 0.05550000000000002 C 0.12270000000000002 0.07365000000000002 0.09150000000000001 0.10875000000000003 0.0729 0.10875000000000003 C 0.0636 0.10875000000000003 0.05895 0.10350000000000002 0.05895 0.09420000000000002 C 0.05895 0.07305000000000002 0.0897 0.04785000000000002 0.0966 0.022650000000000017 C 0.09735 0.02325000000000002 0.09825 0.02385000000000001 0.09915000000000002 0.024300000000000016 C 0.10005000000000001 0.02490000000000002 0.1005 0.025200000000000014 0.10095000000000001 0.025200000000000014 C 0.1014 0.025200000000000014 0.10215 0.02415000000000002 0.10215 0.023700000000000013 C 0.10215 0.02325000000000002 0.10170000000000001 0.022800000000000015 0.10125 0.02250000000000002 L 0.09735 0.019800000000000012 C 0.09765000000000001 0.01770000000000002 0.09795000000000001 0.01545000000000002 0.09795000000000001 0.013350000000000015 C 0.09795000000000001 0.006600000000000009 0.09345 0.002850000000000019 0.0927 0.002850000000000019 C 0.09195 0.002850000000000019 0.09135000000000001 0.0034500000000000086 0.09135000000000001 0.004050000000000012 C 0.09135000000000001 0.004650000000000015 0.0936 0.006900000000000017 0.0936 0.013950000000000018 C 0.0936 0.015000000000000013 0.09345 0.01605000000000001 0.09330000000000001 0.017100000000000018 C 0.07980000000000001 0.008700000000000013 0.06390000000000001 0.0030000000000000165 0.047400000000000005 0.0030000000000000165 C 0.0198 0.0030000000000000165 0.00030000000000000003 0.016650000000000012 0.00030000000000000003 0.036150000000000015 C 0.00030000000000000003 0.05025000000000002 0.012750000000000001 0.058950000000000016 0.022050000000000004 0.058950000000000016 C 0.0234 0.058950000000000016 0.02415 0.05850000000000002 0.02415 0.05760000000000002 C 0.02415 0.05715000000000002 0.023850000000000003 0.05685000000000002 0.0228 0.05670000000000002 M 0.04875 0.17880000000000001 C 0.039150000000000004 0.17880000000000001 0.032100000000000004 0.17250000000000004 0.032100000000000004 0.16380000000000003 C 0.032100000000000004 0.13965000000000002 0.07410000000000001 0.11985000000000003 0.10395000000000001 0.11985000000000003 C 0.10545000000000002 0.11985000000000003 0.10725000000000001 0.11985000000000003 0.1092 0.12000000000000002 C 0.09465000000000001 0.14940000000000003 0.07395 0.17880000000000001 0.04875 0.17880000000000001 M 0.22890842285156254 0.002850000000000019 C 0.18765842285156253 0.002850000000000019 0.14925842285156254 0.04305000000000002 0.14925842285156254 0.07485000000000003 C 0.14925842285156254 0.08190000000000003 0.15120842285156255 0.08760000000000003 0.15450842285156255 0.09180000000000002 C 0.15360842285156254 0.09645000000000002 0.15315842285156253 0.10095000000000003 0.15315842285156253 0.10575000000000002 C 0.15315842285156253 0.12090000000000002 0.16185842285156254 0.13215000000000002 0.17790842285156255 0.13215000000000002 C 0.21420842285156255 0.13215000000000002 0.26145842285156257 0.07245000000000001 0.26145842285156257 0.034650000000000014 C 0.26145842285156257 0.01515000000000001 0.24930842285156257 0.002850000000000019 0.22890842285156254 0.002850000000000019 M 0.17355842285156253 0.10080000000000003 C 0.18225842285156255 0.10080000000000003 0.18765842285156253 0.09615000000000003 0.18765842285156253 0.09540000000000003 C 0.18765842285156253 0.09495000000000002 0.18720842285156256 0.09450000000000003 0.18675842285156255 0.09450000000000003 C 0.18585842285156254 0.09450000000000003 0.18240842285156256 0.09795000000000002 0.17475842285156254 0.09795000000000002 C 0.16815842285156254 0.09795000000000002 0.16275842285156256 0.09615000000000003 0.15915842285156254 0.09225000000000003 C 0.16755842285156256 0.05445000000000002 0.20700842285156254 0.023400000000000018 0.23040842285156254 0.023400000000000018 C 0.23910842285156256 0.023400000000000018 0.24195842285156255 0.027450000000000016 0.24255842285156254 0.027450000000000016 C 0.24300842285156254 0.027450000000000016 0.24345842285156255 0.02715000000000002 0.24345842285156255 0.026550000000000018 C 0.24345842285156255 0.024450000000000013 0.23880842285156256 0.01995000000000001 0.23085842285156255 0.01995000000000001 C 0.20520842285156254 0.01995000000000001 0.16620842285156254 0.049500000000000016 0.15570842285156256 0.08700000000000002 C 0.15435842285156254 0.08385000000000002 0.15375842285156255 0.07995000000000002 0.15375842285156255 0.07515000000000002 C 0.15375842285156255 0.04620000000000002 0.19125842285156255 0.006300000000000014 0.22800842285156253 0.006300000000000014 C 0.24450842285156255 0.006300000000000014 0.25725842285156253 0.015600000000000017 0.25725842285156253 0.03420000000000002 C 0.25725842285156253 0.07110000000000002 0.21075842285156254 0.12885000000000002 0.17850842285156254 0.12885000000000002 C 0.16470842285156254 0.12885000000000002 0.15750842285156255 0.11925000000000002 0.15750842285156255 0.10650000000000003 C 0.15750842285156255 0.10275000000000002 0.15780842285156255 0.09930000000000003 0.15840842285156254 0.09570000000000002 C 0.16275842285156256 0.09900000000000002 0.16800842285156253 0.10080000000000003 0.17355842285156253 0.10080000000000003 M 0.24856062011718758 0.05670000000000002 C 0.23971062011718755 0.05565000000000002 0.23071062011718757 0.04815000000000002 0.23071062011718757 0.036150000000000015 C 0.23071062011718757 0.01860000000000002 0.24931062011718758 0.00675000000000002 0.27316062011718756 0.00675000000000002 C 0.28981062011718756 0.00675000000000002 0.30601062011718755 0.01305000000000002 0.3193606201171876 0.02100000000000002 C 0.3138106201171876 0.051900000000000016 0.2739106201171876 0.08475000000000002 0.2739106201171876 0.11325000000000002 C 0.2739106201171876 0.12330000000000002 0.28186062011718754 0.13125000000000003 0.2931106201171876 0.13125000000000003 C 0.31441062011718757 0.13125000000000003 0.3484606201171876 0.09285000000000002 0.35581062011718756 0.08325000000000002 C 0.35581062011718756 0.08325000000000002 0.3516106201171876 0.09645000000000002 0.3516106201171876 0.10695000000000002 C 0.3516106201171876 0.11535000000000002 0.3544606201171876 0.12285000000000003 0.36106062011718754 0.12780000000000002 C 0.3616606201171876 0.12825000000000003 0.3625606201171876 0.12855000000000003 0.3631606201171876 0.12855000000000003 C 0.36391062011718756 0.12855000000000003 0.3645106201171876 0.12810000000000002 0.3645106201171876 0.12735000000000002 C 0.3645106201171876 0.12675000000000003 0.36376062011718757 0.12645000000000003 0.36301062011718754 0.12585000000000002 C 0.35791062011718755 0.12165000000000002 0.3556606201171876 0.11400000000000002 0.3556606201171876 0.10710000000000003 C 0.3556606201171876 0.09615000000000003 0.35986062011718756 0.08235000000000002 0.36496062011718755 0.07200000000000002 C 0.37486062011718757 0.051900000000000016 0.3846106201171876 0.03585000000000002 0.3846106201171876 0.022050000000000014 C 0.3846106201171876 0.01995000000000001 0.3838606201171876 0.018750000000000017 0.38221062011718754 0.018750000000000017 C 0.38116062011718754 0.018750000000000017 0.3808606201171876 0.019500000000000017 0.3808606201171876 0.02100000000000002 C 0.3808606201171876 0.03495000000000002 0.36991062011718756 0.054300000000000015 0.35806062011718753 0.07320000000000002 C 0.3474106201171876 0.09015000000000002 0.31246062011718756 0.1269 0.29341062011718755 0.1269 C 0.28471062011718756 0.1269 0.27871062011718756 0.12135000000000003 0.27871062011718756 0.11250000000000002 C 0.27871062011718756 0.08670000000000003 0.31666062011718754 0.05475000000000002 0.32311062011718755 0.02325000000000002 L 0.3249106201171876 0.024300000000000016 C 0.3258106201171876 0.02490000000000002 0.3262606201171876 0.025200000000000014 0.32671062011718754 0.025200000000000014 C 0.32716062011718755 0.025200000000000014 0.3279106201171876 0.02415000000000002 0.3279106201171876 0.023700000000000013 C 0.3279106201171876 0.02325000000000002 0.3274606201171876 0.022800000000000015 0.32701062011718757 0.02250000000000002 L 0.32371062011718754 0.020250000000000018 C 0.32401062011718756 0.01830000000000001 0.3241606201171876 0.01620000000000002 0.3241606201171876 0.014250000000000013 C 0.3241606201171876 0.007200000000000012 0.31996062011718757 0.002850000000000019 0.31906062011718755 0.002850000000000019 C 0.3183106201171876 0.002850000000000019 0.31756062011718755 0.0034500000000000086 0.31756062011718755 0.004200000000000009 C 0.31756062011718755 0.004650000000000015 0.32011062011718755 0.006600000000000009 0.32011062011718755 0.014100000000000015 C 0.32011062011718755 0.015300000000000008 0.31996062011718757 0.016500000000000015 0.31996062011718757 0.01755000000000001 C 0.3061606201171876 0.00885000000000001 0.2899606201171876 0.0030000000000000165 0.27316062011718756 0.0030000000000000165 C 0.24556062011718757 0.0030000000000000165 0.22606062011718756 0.016650000000000012 0.22606062011718756 0.036150000000000015 C 0.22606062011718756 0.05025000000000002 0.23851062011718757 0.058950000000000016 0.24781062011718757 0.058950000000000016 C 0.24916062011718756 0.058950000000000016 0.24991062011718757 0.05850000000000002 0.24991062011718757 0.05760000000000002 C 0.24991062011718757 0.05715000000000002 0.24961062011718757 0.05685000000000002 0.24856062011718758 0.05670000000000002 M 0.4834634033203126 0.023700000000000013 C 0.48241340332031263 0.023700000000000013 0.4812134033203126 0.02460000000000001 0.4791134033203126 0.026100000000000012 C 0.4635134033203126 0.03750000000000002 0.4237634033203126 0.08775000000000002 0.4237634033203126 0.11220000000000002 C 0.4237634033203126 0.11430000000000003 0.4252634033203126 0.11565000000000003 0.4266134033203126 0.11565000000000003 C 0.42736340332031264 0.11565000000000003 0.4276634033203126 0.11520000000000002 0.4276634033203126 0.11430000000000003 C 0.4276634033203126 0.08805000000000002 0.46921340332031264 0.03795000000000002 0.4825634033203126 0.028350000000000014 C 0.4846634033203126 0.026850000000000013 0.48541340332031263 0.02625000000000001 0.48541340332031263 0.02535000000000001 C 0.48541340332031263 0.024450000000000013 0.4845134033203126 0.023700000000000013 0.4834634033203126 0.023700000000000013 M 0.4734134033203126 0.07725000000000001 C 0.4701134033203126 0.07725000000000001 0.4641134033203126 0.07320000000000002 0.4578134033203126 0.07320000000000002 C 0.4552634033203126 0.07320000000000002 0.4540634033203126 0.07485000000000003 0.4540634033203126 0.07650000000000001 C 0.4540634033203126 0.07920000000000002 0.4612634033203126 0.08115000000000003 0.47071340332031264 0.08115000000000003 C 0.49276340332031265 0.09240000000000002 0.48976340332031265 0.13485000000000003 0.5188634033203127 0.13485000000000003 C 0.5292134033203126 0.13485000000000003 0.5371634033203126 0.12765 0.5371634033203126 0.12645000000000003 C 0.5371634033203126 0.12600000000000003 0.5368634033203126 0.12570000000000003 0.5364134033203126 0.12570000000000003 C 0.5356634033203126 0.12570000000000003 0.5307134033203126 0.13185000000000002 0.5212634033203126 0.13185000000000002 C 0.4933634033203126 0.13185000000000002 0.49651340332031263 0.09105000000000002 0.4752134033203126 0.08055000000000002 C 0.49951340332031263 0.08055000000000002 0.5301134033203126 0.06315000000000001 0.5301134033203126 0.03495000000000002 C 0.5301134033203126 0.01590000000000001 0.5127134033203127 0.002850000000000019 0.4792634033203126 0.002850000000000019 C 0.4338134033203126 0.002850000000000019 0.3943634033203126 0.026550000000000018 0.3943634033203126 0.05145000000000002 C 0.3943634033203126 0.06345000000000002 0.40276340332031263 0.06915000000000002 0.4120634033203126 0.06915000000000002 C 0.4194134033203126 0.06915000000000002 0.4245134033203126 0.06555000000000002 0.4245134033203126 0.06450000000000003 C 0.4245134033203126 0.06405000000000002 0.4242134033203126 0.06375000000000003 0.4237634033203126 0.06375000000000003 C 0.4227134033203126 0.06375000000000003 0.4191134033203126 0.06630000000000003 0.4135634033203126 0.06630000000000003 C 0.40471340332031264 0.06630000000000003 0.3984134033203126 0.06105000000000002 0.3984134033203126 0.05130000000000002 C 0.3984134033203126 0.02955000000000002 0.4368134033203126 0.006600000000000009 0.4792634033203126 0.006600000000000009 C 0.5097134033203126 0.006600000000000009 0.5259134033203126 0.01770000000000002 0.5259134033203126 0.034650000000000014 C 0.5259134033203126 0.06150000000000002 0.49681340332031265 0.07725000000000001 0.4734134033203126 0.07725000000000001 M 0.5937192626953125 0.011100000000000013 C 0.5722692626953125 0.011100000000000013 0.5503692626953125 0.024450000000000013 0.5503692626953125 0.047250000000000014 C 0.5503692626953125 0.06585000000000002 0.5641692626953125 0.07830000000000002 0.5863692626953125 0.08235000000000002 C 0.5836692626953125 0.08985000000000003 0.5821692626953126 0.09735000000000002 0.5821692626953126 0.10440000000000002 C 0.5821692626953126 0.12600000000000003 0.5950692626953125 0.13845000000000002 0.6148692626953125 0.13845000000000002 C 0.6300192626953125 0.13845000000000002 0.6459192626953125 0.13140000000000002 0.6573192626953125 0.12165000000000002 C 0.6583692626953125 0.12075000000000002 0.6589692626953125 0.12000000000000002 0.6589692626953125 0.11925000000000002 C 0.6589692626953125 0.11850000000000002 0.6585192626953125 0.11805000000000002 0.6577692626953126 0.11805000000000002 C 0.6571692626953125 0.11805000000000002 0.6564192626953125 0.11850000000000002 0.6552192626953125 0.11940000000000002 C 0.6448692626953125 0.12720000000000004 0.6297192626953125 0.13440000000000002 0.6150192626953125 0.13440000000000002 C 0.5979192626953125 0.13440000000000002 0.5872692626953125 0.12330000000000002 0.5872692626953125 0.10440000000000002 C 0.5872692626953125 0.09750000000000002 0.5886192626953125 0.09030000000000002 0.5911692626953124 0.08310000000000002 C 0.5949192626953125 0.08355000000000001 0.5989692626953125 0.08370000000000002 0.6031692626953125 0.08370000000000002 C 0.6459192626953125 0.08370000000000002 0.6982692626953125 0.047550000000000016 0.6982692626953125 0.01905000000000001 C 0.6982692626953125 0.009000000000000008 0.6921192626953125 0.0030000000000000165 0.6804192626953125 0.0030000000000000165 C 0.6463692626953125 0.0030000000000000165 0.6028692626953125 0.04110000000000002 0.5877192626953125 0.07875000000000001 C 0.5667192626953125 0.07530000000000002 0.5547192626953125 0.06435000000000002 0.5547192626953125 0.046800000000000015 C 0.5547192626953125 0.026700000000000015 0.5746692626953125 0.014850000000000016 0.5928192626953125 0.014850000000000016 C 0.6052692626953124 0.014850000000000016 0.6112692626953125 0.01905000000000001 0.6124692626953125 0.01905000000000001 C 0.6130692626953125 0.01905000000000001 0.6135192626953125 0.01860000000000002 0.6135192626953125 0.01785000000000002 C 0.6135192626953125 0.016350000000000017 0.6057192626953125 0.011100000000000013 0.5937192626953125 0.011100000000000013 M 0.6804192626953125 0.006600000000000009 C 0.6895692626953125 0.006600000000000009 0.6940692626953125 0.011550000000000019 0.6940692626953125 0.01935000000000002 C 0.6940692626953125 0.046050000000000015 0.6438192626953125 0.07995000000000002 0.6037692626953125 0.07995000000000002 C 0.5997192626953125 0.07995000000000002 0.5959692626953125 0.07980000000000002 0.5925192626953125 0.07950000000000002 C 0.6069192626953125 0.04305000000000002 0.6480192626953125 0.006600000000000009 0.6804192626953125 0.006600000000000009 M 0.7696738037109375 0.002850000000000019 C 0.7284238037109375 0.002850000000000019 0.6900238037109375 0.04305000000000002 0.6900238037109375 0.07485000000000003 C 0.6900238037109375 0.08190000000000003 0.6919738037109375 0.08760000000000003 0.6952738037109375 0.09180000000000002 C 0.6943738037109375 0.09645000000000002 0.6939238037109375 0.10095000000000003 0.6939238037109375 0.10575000000000002 C 0.6939238037109375 0.12090000000000002 0.7026238037109376 0.13215000000000002 0.7186738037109375 0.13215000000000002 C 0.7549738037109375 0.13215000000000002 0.8022238037109375 0.07245000000000001 0.8022238037109375 0.034650000000000014 C 0.8022238037109375 0.01515000000000001 0.7900738037109375 0.002850000000000019 0.7696738037109375 0.002850000000000019 M 0.7143238037109375 0.10080000000000003 C 0.7230238037109376 0.10080000000000003 0.7284238037109375 0.09615000000000003 0.7284238037109375 0.09540000000000003 C 0.7284238037109375 0.09495000000000002 0.7279738037109376 0.09450000000000003 0.7275238037109375 0.09450000000000003 C 0.7266238037109375 0.09450000000000003 0.7231738037109375 0.09795000000000002 0.7155238037109375 0.09795000000000002 C 0.7089238037109376 0.09795000000000002 0.7035238037109375 0.09615000000000003 0.6999238037109375 0.09225000000000003 C 0.7083238037109375 0.05445000000000002 0.7477738037109375 0.023400000000000018 0.7711738037109376 0.023400000000000018 C 0.7798738037109375 0.023400000000000018 0.7827238037109375 0.027450000000000016 0.7833238037109376 0.027450000000000016 C 0.7837738037109375 0.027450000000000016 0.7842238037109375 0.02715000000000002 0.7842238037109375 0.026550000000000018 C 0.7842238037109375 0.024450000000000013 0.7795738037109375 0.01995000000000001 0.7716238037109375 0.01995000000000001 C 0.7459738037109376 0.01995000000000001 0.7069738037109375 0.049500000000000016 0.6964738037109375 0.08700000000000002 C 0.6951238037109375 0.08385000000000002 0.6945238037109375 0.07995000000000002 0.6945238037109375 0.07515000000000002 C 0.6945238037109375 0.04620000000000002 0.7320238037109376 0.006300000000000014 0.7687738037109375 0.006300000000000014 C 0.7852738037109376 0.006300000000000014 0.7980238037109375 0.015600000000000017 0.7980238037109375 0.03420000000000002 C 0.7980238037109375 0.07110000000000002 0.7515238037109375 0.12885000000000002 0.7192738037109375 0.12885000000000002 C 0.7054738037109375 0.12885000000000002 0.6982738037109375 0.11925000000000002 0.6982738037109375 0.10650000000000003 C 0.6982738037109375 0.10275000000000002 0.6985738037109375 0.09930000000000003 0.6991738037109375 0.09570000000000002 C 0.7035238037109375 0.09900000000000002 0.7087738037109376 0.10080000000000003 0.7143238037109375 0.10080000000000003 M 0.829825634765625 0.05670000000000002 C 0.820975634765625 0.05565000000000002 0.811975634765625 0.04815000000000002 0.811975634765625 0.036150000000000015 C 0.811975634765625 0.01860000000000002 0.830575634765625 0.00675000000000002 0.854425634765625 0.00675000000000002 C 0.870025634765625 0.00675000000000002 0.885325634765625 0.01230000000000002 0.898225634765625 0.019500000000000017 C 0.8965756347656251 0.022050000000000014 0.894775634765625 0.02535000000000001 0.892525634765625 0.029100000000000015 C 0.8704756347656251 0.06675000000000002 0.834925634765625 0.13440000000000002 0.792925634765625 0.13440000000000002 C 0.778825634765625 0.13440000000000002 0.772375634765625 0.12525000000000003 0.771175634765625 0.11940000000000002 C 0.771025634765625 0.11850000000000002 0.770725634765625 0.11790000000000003 0.770125634765625 0.11790000000000003 C 0.769375634765625 0.11790000000000003 0.768925634765625 0.11850000000000002 0.768925634765625 0.11925000000000002 C 0.768925634765625 0.12600000000000003 0.777175634765625 0.13845000000000002 0.792775634765625 0.13845000000000002 C 0.837775634765625 0.13845000000000002 0.874225634765625 0.06765000000000002 0.898525634765625 0.026550000000000018 C 0.898525634765625 0.026550000000000018 0.891175634765625 0.06060000000000002 0.890875634765625 0.10380000000000002 C 0.890875634765625 0.10950000000000003 0.891325634765625 0.11295000000000002 0.8926756347656251 0.11295000000000002 C 0.894925634765625 0.11295000000000002 0.897025634765625 0.11235000000000002 0.897925634765625 0.11010000000000003 C 0.902425634765625 0.09960000000000002 0.934675634765625 0.039300000000000015 0.960775634765625 0.01695000000000002 C 0.953125634765625 0.03045000000000002 0.936175634765625 0.06225000000000002 0.936175634765625 0.10020000000000003 C 0.936175634765625 0.11775000000000002 0.945175634765625 0.12435000000000002 0.9541756347656251 0.12435000000000002 C 0.960925634765625 0.12435000000000002 0.9652756347656251 0.12090000000000002 0.9652756347656251 0.12030000000000002 C 0.9652756347656251 0.11970000000000003 0.964825634765625 0.11910000000000003 0.9642256347656251 0.11910000000000003 C 0.963625634765625 0.11910000000000003 0.9610756347656251 0.12150000000000002 0.955825634765625 0.12150000000000002 C 0.947425634765625 0.12150000000000002 0.940375634765625 0.11370000000000002 0.940375634765625 0.10020000000000003 C 0.940375634765625 0.06465000000000001 0.954925634765625 0.03405000000000001 0.964525634765625 0.01920000000000001 C 0.966475634765625 0.01620000000000002 0.968575634765625 0.013350000000000015 0.968575634765625 0.012150000000000008 C 0.968575634765625 0.01125000000000001 0.9681256347656251 0.01050000000000001 0.966625634765625 0.01050000000000001 C 0.964975634765625 0.01050000000000001 0.962875634765625 0.011700000000000016 0.959575634765625 0.013950000000000018 C 0.935725634765625 0.03015000000000001 0.898825634765625 0.09750000000000002 0.895075634765625 0.10695000000000002 C 0.895075634765625 0.06720000000000001 0.900925634765625 0.03600000000000002 0.903775634765625 0.022800000000000015 L 0.906175634765625 0.024300000000000016 C 0.907075634765625 0.02490000000000002 0.907525634765625 0.025200000000000014 0.907975634765625 0.025200000000000014 C 0.908425634765625 0.025200000000000014 0.909175634765625 0.02415000000000002 0.909175634765625 0.023700000000000013 C 0.909175634765625 0.02325000000000002 0.908725634765625 0.022800000000000015 0.908275634765625 0.02250000000000002 L 0.904375634765625 0.019800000000000012 C 0.904975634765625 0.017400000000000013 0.905275634765625 0.01620000000000002 0.905275634765625 0.01590000000000001 C 0.905275634765625 0.014700000000000019 0.904375634765625 0.01365000000000001 0.9025756347656251 0.01365000000000001 C 0.902125634765625 0.01365000000000001 0.901225634765625 0.014850000000000016 0.899875634765625 0.01680000000000001 C 0.886375634765625 0.008550000000000016 0.870625634765625 0.0030000000000000165 0.854425634765625 0.0030000000000000165 C 0.826825634765625 0.0030000000000000165 0.807325634765625 0.016650000000000012 0.807325634765625 0.036150000000000015 C 0.807325634765625 0.05025000000000002 0.819775634765625 0.058950000000000016 0.829075634765625 0.058950000000000016 C 0.830425634765625 0.058950000000000016 0.831175634765625 0.05850000000000002 0.831175634765625 0.05760000000000002 C 0.831175634765625 0.05715000000000002 0.830875634765625 0.05685000000000002 0.829825634765625 0.05670000000000002 M 1.0591758544921874 0.023700000000000013 C 1.0581258544921874 0.023700000000000013 1.0564758544921875 0.02460000000000001 1.0543758544921875 0.026100000000000012 C 1.0387758544921875 0.03750000000000002 0.9990258544921875 0.08775000000000002 0.9990258544921875 0.11220000000000002 C 0.9990258544921875 0.11430000000000003 1.0006758544921874 0.11565000000000003 1.0020258544921876 0.11565000000000003 C 1.0027758544921874 0.11565000000000003 1.0030758544921876 0.11520000000000002 1.0030758544921876 0.11430000000000003 C 1.0030758544921876 0.08805000000000002 1.0444758544921875 0.03795000000000002 1.0578258544921875 0.028350000000000014 C 1.0599258544921875 0.026850000000000013 1.0611258544921875 0.02625000000000001 1.0611258544921875 0.02535000000000001 C 1.0611258544921875 0.024450000000000013 1.0602258544921876 0.023700000000000013 1.0591758544921874 0.023700000000000013 M 1.1013258544921876 0.034650000000000014 C 1.1013258544921876 0.06255000000000002 1.0722258544921874 0.07785000000000002 1.0518258544921875 0.07785000000000002 C 1.0398258544921875 0.07785000000000002 1.0350258544921875 0.07530000000000002 1.0342758544921875 0.07530000000000002 C 1.0336758544921876 0.07530000000000002 1.0330758544921874 0.07605000000000002 1.0330758544921874 0.07680000000000002 C 1.0330758544921874 0.07770000000000002 1.0407258544921876 0.08070000000000002 1.0515258544921875 0.08070000000000002 C 1.0758258544921875 0.08070000000000002 1.1053758544921874 0.06405000000000002 1.1053758544921874 0.03450000000000002 C 1.1053758544921874 0.01545000000000002 1.0879758544921876 0.002850000000000019 1.0545258544921876 0.002850000000000019 C 1.0090758544921876 0.002850000000000019 0.9696258544921875 0.026550000000000018 0.9696258544921875 0.05145000000000002 C 0.9696258544921875 0.06345000000000002 0.9780258544921875 0.06915000000000002 0.9873258544921876 0.06915000000000002 C 0.9946758544921875 0.06915000000000002 0.9997758544921875 0.06555000000000002 0.9997758544921875 0.06450000000000003 C 0.9997758544921875 0.06405000000000002 0.9994758544921876 0.06375000000000003 0.9990258544921875 0.06375000000000003 C 0.9979758544921875 0.06375000000000003 0.9943758544921876 0.06630000000000003 0.9888258544921875 0.06630000000000003 C 0.9799758544921875 0.06630000000000003 0.9738258544921875 0.06105000000000002 0.9738258544921875 0.05130000000000002 C 0.9738258544921875 0.029100000000000015 1.0120758544921875 0.006600000000000009 1.0545258544921876 0.006600000000000009 C 1.0849758544921875 0.006600000000000009 1.1013258544921876 0.01770000000000002 1.1013258544921876 0.034650000000000014 M 1.1509724853515626 0.05370000000000002 C 1.1421224853515626 0.052650000000000016 1.1331224853515627 0.045150000000000017 1.1331224853515627 0.03315000000000001 C 1.1331224853515627 0.015600000000000017 1.1517224853515626 0.003750000000000017 1.1755724853515626 0.003750000000000017 C 1.1920724853515625 0.003750000000000017 1.2082724853515625 0.00990000000000002 1.2216224853515625 0.01785000000000002 C 1.1973224853515627 0.02565000000000002 1.1803724853515627 0.048750000000000016 1.1647724853515626 0.07230000000000002 C 1.1526224853515625 0.07005000000000002 1.1394224853515627 0.06765000000000002 1.1268224853515627 0.06765000000000002 C 1.0959224853515626 0.06765000000000002 1.0674224853515626 0.07980000000000002 1.0674224853515626 0.10935000000000003 C 1.0674224853515626 0.12660000000000002 1.0809224853515627 0.13845000000000002 1.0975724853515625 0.13845000000000002 C 1.1272724853515625 0.13845000000000002 1.1464724853515627 0.10710000000000003 1.1667224853515625 0.07665000000000002 C 1.1757224853515627 0.07830000000000002 1.1842724853515625 0.07965000000000003 1.1917724853515625 0.07965000000000003 C 1.1955224853515627 0.07965000000000003 1.1986724853515627 0.07950000000000002 1.2016724853515626 0.07890000000000003 C 1.1991224853515625 0.08625000000000002 1.1976224853515627 0.09345000000000002 1.1976224853515627 0.09960000000000002 C 1.1976224853515627 0.11040000000000003 1.2028724853515627 0.11745000000000003 1.2091724853515626 0.12030000000000002 C 1.2102224853515626 0.12075000000000002 1.2106724853515627 0.12090000000000002 1.2114224853515627 0.12090000000000002 C 1.2121724853515625 0.12090000000000002 1.2126224853515626 0.12060000000000003 1.2126224853515626 0.12015000000000002 C 1.2126224853515626 0.11970000000000003 1.2123224853515626 0.11955000000000002 1.2112724853515626 0.11895000000000003 C 1.2058724853515626 0.11595000000000003 1.2021224853515626 0.10905000000000002 1.2021224853515626 0.09990000000000002 C 1.2021224853515626 0.09315000000000002 1.2037724853515626 0.08550000000000002 1.2066224853515626 0.07770000000000002 C 1.2111224853515625 0.07620000000000002 1.2148724853515627 0.07410000000000003 1.2189224853515626 0.07110000000000002 C 1.2199724853515626 0.07035000000000002 1.2204224853515626 0.06990000000000002 1.2204224853515626 0.06915000000000002 C 1.2204224853515626 0.06870000000000001 1.2199724853515626 0.06825000000000002 1.2195224853515625 0.06825000000000002 C 1.2189224853515626 0.06825000000000002 1.2186224853515626 0.06855000000000003 1.2177224853515627 0.06915000000000002 C 1.2144224853515626 0.07125000000000002 1.2114224853515627 0.07290000000000002 1.2081224853515626 0.07395000000000002 C 1.2160724853515625 0.05400000000000002 1.2303224853515626 0.03285000000000002 1.2409724853515627 0.02010000000000002 C 1.2417224853515627 0.01920000000000001 1.2426224853515626 0.018150000000000013 1.2426224853515626 0.01695000000000002 C 1.2426224853515626 0.01605000000000001 1.2415724853515626 0.014850000000000016 1.2397724853515626 0.014850000000000016 C 1.2346724853515627 0.014850000000000016 1.2298724853515626 0.015600000000000017 1.2253724853515626 0.016650000000000012 C 1.2111224853515625 0.006900000000000017 1.1935724853515626 1.3877787807814457e-17 1.1755724853515626 1.3877787807814457e-17 C 1.1479724853515627 1.3877787807814457e-17 1.1284724853515626 0.01365000000000001 1.1284724853515626 0.03315000000000001 C 1.1284724853515626 0.047250000000000014 1.1409224853515627 0.05595000000000002 1.1502224853515626 0.05595000000000002 C 1.1515724853515625 0.05595000000000002 1.1523224853515626 0.05550000000000002 1.1523224853515626 0.05460000000000002 C 1.1523224853515626 0.05415000000000002 1.1520224853515626 0.053850000000000016 1.1509724853515626 0.05370000000000002 M 1.0975724853515625 0.13470000000000004 C 1.0825724853515626 0.13470000000000004 1.0714724853515627 0.12435000000000002 1.0714724853515627 0.10935000000000003 C 1.0714724853515627 0.08220000000000002 1.0980224853515625 0.07155000000000002 1.1269724853515626 0.07155000000000002 C 1.1389724853515626 0.07155000000000002 1.1511224853515627 0.07380000000000002 1.1625224853515626 0.07590000000000002 C 1.1431724853515626 0.10545000000000002 1.1253224853515627 0.13470000000000004 1.0975724853515625 0.13470000000000004 M 1.1926724853515627 0.07605000000000002 C 1.1859224853515626 0.07605000000000002 1.1778224853515626 0.07470000000000002 1.1691224853515627 0.07320000000000002 C 1.1850224853515625 0.049200000000000015 1.2019724853515625 0.02640000000000002 1.2252224853515625 0.01995000000000001 L 1.2273224853515625 0.021300000000000013 C 1.2282224853515626 0.021900000000000017 1.2286724853515625 0.02220000000000001 1.2291224853515625 0.02220000000000001 C 1.2295724853515626 0.02220000000000001 1.2303224853515626 0.021150000000000016 1.2303224853515626 0.02070000000000001 C 1.2303224853515626 0.020250000000000018 1.2298724853515626 0.019800000000000012 1.2294224853515625 0.019500000000000017 L 1.2288224853515626 0.01920000000000001 C 1.2319724853515626 0.01860000000000002 1.2351224853515625 0.018150000000000013 1.2385724853515625 0.018150000000000013 C 1.2276224853515627 0.03015000000000001 1.2112724853515626 0.05355000000000002 1.2030224853515625 0.07530000000000002 C 1.1998724853515625 0.07590000000000002 1.1964224853515626 0.07605000000000002 1.1926724853515627 0.07605000000000002 M 1.2541780517578127 0.05670000000000002 C 1.2453280517578127 0.05565000000000002 1.2363280517578126 0.04815000000000002 1.2363280517578126 0.036150000000000015 C 1.2363280517578126 0.01860000000000002 1.2549280517578127 0.00675000000000002 1.2787780517578127 0.00675000000000002 C 1.2937780517578126 0.00675000000000002 1.3084780517578127 0.011850000000000013 1.3210780517578127 0.01860000000000002 L 1.3191280517578126 0.024300000000000016 C 1.3065280517578126 0.06090000000000002 1.2811780517578126 0.13440000000000002 1.2391780517578126 0.13440000000000002 C 1.2250780517578126 0.13440000000000002 1.2184780517578127 0.12525000000000003 1.2172780517578126 0.11940000000000002 C 1.2171280517578127 0.11850000000000002 1.2168280517578127 0.11790000000000003 1.2162280517578126 0.11790000000000003 C 1.2154780517578125 0.11790000000000003 1.2150280517578127 0.11850000000000002 1.2150280517578127 0.11925000000000002 C 1.2150280517578127 0.12600000000000003 1.2232780517578126 0.13845000000000002 1.2388780517578126 0.13845000000000002 C 1.2837280517578127 0.13845000000000002 1.3095280517578127 0.06360000000000002 1.3245280517578126 0.02250000000000002 C 1.3245280517578126 0.02250000000000002 1.3333780517578127 0.06000000000000002 1.3335280517578125 0.10575000000000002 C 1.3320280517578127 0.11130000000000002 1.3309780517578127 0.11475000000000002 1.3309780517578127 0.11775000000000002 C 1.3309780517578127 0.12045000000000003 1.3321780517578126 0.12150000000000002 1.3336780517578126 0.12150000000000002 C 1.3371280517578126 0.12150000000000002 1.3375780517578126 0.11235000000000002 1.3375780517578126 0.10740000000000002 C 1.3522780517578126 0.08325000000000002 1.3770280517578126 0.04575000000000002 1.3770280517578126 0.01905000000000001 C 1.3770280517578126 0.008250000000000007 1.3701280517578127 0.002850000000000019 1.3690780517578127 0.002850000000000019 C 1.3686280517578127 0.002850000000000019 1.3680280517578127 0.0034500000000000086 1.3680280517578127 0.0039000000000000146 C 1.3680280517578127 0.004500000000000018 1.3729780517578127 0.00885000000000001 1.3729780517578127 0.01860000000000002 C 1.3729780517578127 0.04470000000000002 1.3516780517578126 0.07695000000000002 1.3369780517578127 0.10185000000000002 C 1.3374280517578125 0.06900000000000002 1.3324780517578128 0.03870000000000002 1.3296280517578127 0.023700000000000013 C 1.3299280517578127 0.02400000000000002 1.3302280517578127 0.02415000000000002 1.3305280517578126 0.024300000000000016 C 1.3314280517578125 0.02490000000000002 1.3318780517578126 0.025200000000000014 1.3323280517578127 0.025200000000000014 C 1.3327780517578127 0.025200000000000014 1.3335280517578125 0.02415000000000002 1.3335280517578125 0.023700000000000013 C 1.3335280517578125 0.02325000000000002 1.3330780517578127 0.022800000000000015 1.3326280517578126 0.02250000000000002 L 1.3288780517578127 0.019800000000000012 C 1.3281280517578127 0.01620000000000002 1.3275280517578127 0.014100000000000015 1.3275280517578127 0.01380000000000002 C 1.3272280517578126 0.012600000000000014 1.3260280517578127 0.011550000000000019 1.3242280517578127 0.011550000000000019 C 1.3237780517578126 0.011550000000000019 1.3230280517578126 0.01305000000000002 1.3221280517578127 0.015600000000000017 C 1.3090780517578127 0.00810000000000001 1.2942280517578126 0.0030000000000000165 1.2787780517578127 0.0030000000000000165 C 1.2511780517578126 0.0030000000000000165 1.2316780517578125 0.016650000000000012 1.2316780517578125 0.036150000000000015 C 1.2316780517578125 0.05025000000000002 1.2441280517578126 0.058950000000000016 1.2534280517578127 0.058950000000000016 C 1.2547780517578127 0.058950000000000016 1.2555280517578127 0.05850000000000002 1.2555280517578127 0.05760000000000002 C 1.2555280517578127 0.05715000000000002 1.2552280517578127 0.05685000000000002 1.2541780517578127 0.05670000000000002 M 1.361429150390625 0.05670000000000002 C 1.352579150390625 0.05565000000000002 1.3435791503906251 0.04815000000000002 1.3435791503906251 0.036150000000000015 C 1.3435791503906251 0.01860000000000002 1.362179150390625 0.00675000000000002 1.3860291503906252 0.00675000000000002 C 1.402379150390625 0.00675000000000002 1.4182791503906251 0.012750000000000011 1.4314791503906252 0.020400000000000015 C 1.4260791503906252 0.044850000000000015 1.3930791503906252 0.07095000000000001 1.3930791503906252 0.09480000000000002 C 1.3930791503906252 0.10515000000000002 1.400579150390625 0.11280000000000003 1.4113791503906252 0.11280000000000003 C 1.431629150390625 0.11280000000000003 1.462979150390625 0.07650000000000001 1.4701791503906252 0.06480000000000002 C 1.467179150390625 0.07290000000000002 1.4599791503906252 0.09450000000000003 1.4493291503906252 0.11670000000000003 C 1.447079150390625 0.11640000000000003 1.444979150390625 0.11640000000000003 1.442879150390625 0.11640000000000003 C 1.4101791503906251 0.11640000000000003 1.366679150390625 0.13755000000000003 1.366679150390625 0.16365000000000002 C 1.366679150390625 0.17445000000000005 1.374779150390625 0.18255000000000005 1.3876791503906252 0.18255000000000005 C 1.414979150390625 0.18255000000000005 1.436879150390625 0.15135000000000004 1.452029150390625 0.12060000000000003 C 1.460429150390625 0.12210000000000003 1.4691291503906252 0.12615000000000004 1.4704791503906252 0.13620000000000002 C 1.470629150390625 0.13725000000000004 1.4707791503906251 0.13770000000000002 1.4715291503906252 0.13770000000000002 C 1.4725791503906251 0.13770000000000002 1.4727291503906252 0.1365 1.4727291503906252 0.13485000000000003 C 1.4727291503906252 0.12465000000000002 1.463579150390625 0.11940000000000002 1.4536791503906252 0.11745000000000003 C 1.464329150390625 0.09510000000000002 1.4716791503906252 0.07365000000000002 1.474979150390625 0.06480000000000002 C 1.483079150390625 0.042900000000000015 1.4892291503906252 0.02640000000000002 1.4920791503906252 0.014100000000000015 C 1.492529150390625 0.01230000000000002 1.491479150390625 0.011400000000000007 1.490129150390625 0.011400000000000007 C 1.4892291503906252 0.011400000000000007 1.4892291503906252 0.01200000000000001 1.4889291503906252 0.013200000000000017 C 1.485479150390625 0.026550000000000018 1.4785791503906252 0.045150000000000017 1.4722791503906252 0.05550000000000002 C 1.4613291503906252 0.07365000000000002 1.430129150390625 0.10875000000000003 1.411529150390625 0.10875000000000003 C 1.4022291503906252 0.10875000000000003 1.3975791503906252 0.10350000000000002 1.3975791503906252 0.09420000000000002 C 1.3975791503906252 0.07305000000000002 1.428329150390625 0.04785000000000002 1.4352291503906252 0.022650000000000017 C 1.4359791503906252 0.02325000000000002 1.436879150390625 0.02385000000000001 1.4377791503906252 0.024300000000000016 C 1.438679150390625 0.02490000000000002 1.4391291503906252 0.025200000000000014 1.4395791503906252 0.025200000000000014 C 1.440029150390625 0.025200000000000014 1.440779150390625 0.02415000000000002 1.440779150390625 0.023700000000000013 C 1.440779150390625 0.02325000000000002 1.440329150390625 0.022800000000000015 1.4398791503906252 0.02250000000000002 L 1.4359791503906252 0.019800000000000012 C 1.4362791503906251 0.01770000000000002 1.4365791503906251 0.01545000000000002 1.4365791503906251 0.013350000000000015 C 1.4365791503906251 0.006600000000000009 1.4320791503906252 0.002850000000000019 1.4313291503906251 0.002850000000000019 C 1.430579150390625 0.002850000000000019 1.4299791503906252 0.0034500000000000086 1.4299791503906252 0.004050000000000012 C 1.4299791503906252 0.004650000000000015 1.432229150390625 0.006900000000000017 1.432229150390625 0.013950000000000018 C 1.432229150390625 0.015000000000000013 1.4320791503906252 0.01605000000000001 1.431929150390625 0.017100000000000018 C 1.4184291503906252 0.008700000000000013 1.4025291503906252 0.0030000000000000165 1.3860291503906252 0.0030000000000000165 C 1.3584291503906252 0.0030000000000000165 1.338929150390625 0.016650000000000012 1.338929150390625 0.036150000000000015 C 1.338929150390625 0.05025000000000002 1.3513791503906252 0.058950000000000016 1.360679150390625 0.058950000000000016 C 1.3620291503906252 0.058950000000000016 1.362779150390625 0.05850000000000002 1.362779150390625 0.05760000000000002 C 1.362779150390625 0.05715000000000002 1.362479150390625 0.05685000000000002 1.361429150390625 0.05670000000000002 M 1.3873791503906252 0.17880000000000001 C 1.3777791503906252 0.17880000000000001 1.3707291503906252 0.17250000000000004 1.3707291503906252 0.16380000000000003 C 1.3707291503906252 0.13965000000000002 1.4127291503906252 0.11985000000000003 1.4425791503906251 0.11985000000000003 C 1.4440791503906252 0.11985000000000003 1.4458791503906252 0.11985000000000003 1.447829150390625 0.12000000000000002 C 1.433279150390625 0.14940000000000003 1.412579150390625 0.17880000000000001 1.3873791503906252 0.17880000000000001 M 1.5519350097656253 0.05670000000000002 C 1.5430850097656252 0.05565000000000002 1.5340850097656251 0.04815000000000002 1.5340850097656251 0.036150000000000015 C 1.5340850097656251 0.01860000000000002 1.552685009765625 0.00675000000000002 1.5765350097656252 0.00675000000000002 C 1.5915350097656251 0.00675000000000002 1.6062350097656253 0.011850000000000013 1.6188350097656252 0.01860000000000002 L 1.616885009765625 0.024300000000000016 C 1.6042850097656252 0.06090000000000002 1.5789350097656252 0.13440000000000002 1.5369350097656251 0.13440000000000002 C 1.5228350097656251 0.13440000000000002 1.5162350097656252 0.12525000000000003 1.515035009765625 0.11940000000000002 C 1.5148850097656252 0.11850000000000002 1.5145850097656253 0.11790000000000003 1.5139850097656251 0.11790000000000003 C 1.513235009765625 0.11790000000000003 1.5127850097656252 0.11850000000000002 1.5127850097656252 0.11925000000000002 C 1.5127850097656252 0.12600000000000003 1.5210350097656251 0.13845000000000002 1.5366350097656252 0.13845000000000002 C 1.5814850097656252 0.13845000000000002 1.6072850097656253 0.06360000000000002 1.6222850097656252 0.02250000000000002 C 1.6222850097656252 0.02250000000000002 1.6311350097656252 0.06000000000000002 1.6312850097656253 0.10575000000000002 C 1.6297850097656252 0.11130000000000002 1.6287350097656252 0.11475000000000002 1.6287350097656252 0.11775000000000002 C 1.6287350097656252 0.12045000000000003 1.629935009765625 0.12150000000000002 1.6314350097656252 0.12150000000000002 C 1.6348850097656251 0.12150000000000002 1.6353350097656252 0.11235000000000002 1.6353350097656252 0.10740000000000002 C 1.6500350097656251 0.08325000000000002 1.6747850097656252 0.04575000000000002 1.6747850097656252 0.01905000000000001 C 1.6747850097656252 0.008250000000000007 1.6678850097656253 0.002850000000000019 1.6668350097656253 0.002850000000000019 C 1.6663850097656252 0.002850000000000019 1.6657850097656253 0.0034500000000000086 1.6657850097656253 0.0039000000000000146 C 1.6657850097656253 0.004500000000000018 1.6707350097656253 0.00885000000000001 1.6707350097656253 0.01860000000000002 C 1.6707350097656253 0.04470000000000002 1.6494350097656252 0.07695000000000002 1.6347350097656252 0.10185000000000002 C 1.635185009765625 0.06900000000000002 1.630235009765625 0.03870000000000002 1.6273850097656253 0.023700000000000013 C 1.6276850097656252 0.02400000000000002 1.6279850097656252 0.02415000000000002 1.6282850097656252 0.024300000000000016 C 1.6291850097656253 0.02490000000000002 1.6296350097656251 0.025200000000000014 1.6300850097656252 0.025200000000000014 C 1.6305350097656253 0.025200000000000014 1.6312850097656253 0.02415000000000002 1.6312850097656253 0.023700000000000013 C 1.6312850097656253 0.02325000000000002 1.6308350097656252 0.022800000000000015 1.6303850097656252 0.02250000000000002 L 1.6266350097656253 0.019800000000000012 C 1.6258850097656252 0.01620000000000002 1.6252850097656253 0.014100000000000015 1.6252850097656253 0.01380000000000002 C 1.624985009765625 0.012600000000000014 1.6237850097656252 0.011550000000000019 1.6219850097656252 0.011550000000000019 C 1.6215350097656251 0.011550000000000019 1.6207850097656251 0.01305000000000002 1.6198850097656252 0.015600000000000017 C 1.6068350097656252 0.00810000000000001 1.5919850097656252 0.0030000000000000165 1.5765350097656252 0.0030000000000000165 C 1.5489350097656251 0.0030000000000000165 1.529435009765625 0.016650000000000012 1.529435009765625 0.036150000000000015 C 1.529435009765625 0.05025000000000002 1.5418850097656251 0.058950000000000016 1.5511850097656252 0.058950000000000016 C 1.5525350097656252 0.058950000000000016 1.5532850097656252 0.05850000000000002 1.5532850097656252 0.05760000000000002 C 1.5532850097656252 0.05715000000000002 1.5529850097656253 0.05685000000000002 1.5519350097656253 0.05670000000000002 M 1.7214375732421876 0.05370000000000002 C 1.7125875732421876 0.052650000000000016 1.7035875732421877 0.045150000000000017 1.7035875732421877 0.03315000000000001 C 1.7035875732421877 0.015600000000000017 1.7221875732421876 0.003750000000000017 1.7460375732421876 0.003750000000000017 C 1.7625375732421875 0.003750000000000017 1.7787375732421875 0.00990000000000002 1.7920875732421875 0.01785000000000002 C 1.7677875732421877 0.02565000000000002 1.7508375732421877 0.048750000000000016 1.7352375732421876 0.07230000000000002 C 1.7230875732421875 0.07005000000000002 1.7098875732421877 0.06765000000000002 1.6972875732421877 0.06765000000000002 C 1.6663875732421876 0.06765000000000002 1.6378875732421876 0.07980000000000002 1.6378875732421876 0.10935000000000003 C 1.6378875732421876 0.12660000000000002 1.6513875732421877 0.13845000000000002 1.6680375732421875 0.13845000000000002 C 1.6977375732421875 0.13845000000000002 1.7169375732421877 0.10710000000000003 1.7371875732421875 0.07665000000000002 C 1.7461875732421877 0.07830000000000002 1.7547375732421875 0.07965000000000003 1.7622375732421875 0.07965000000000003 C 1.7659875732421877 0.07965000000000003 1.7691375732421877 0.07950000000000002 1.7721375732421876 0.07890000000000003 C 1.7695875732421875 0.08625000000000002 1.7680875732421877 0.09345000000000002 1.7680875732421877 0.09960000000000002 C 1.7680875732421877 0.11040000000000003 1.7733375732421877 0.11745000000000003 1.7796375732421876 0.12030000000000002 C 1.7806875732421876 0.12075000000000002 1.7811375732421877 0.12090000000000002 1.7818875732421877 0.12090000000000002 C 1.7826375732421875 0.12090000000000002 1.7830875732421876 0.12060000000000003 1.7830875732421876 0.12015000000000002 C 1.7830875732421876 0.11970000000000003 1.7827875732421876 0.11955000000000002 1.7817375732421876 0.11895000000000003 C 1.7763375732421876 0.11595000000000003 1.7725875732421876 0.10905000000000002 1.7725875732421876 0.09990000000000002 C 1.7725875732421876 0.09315000000000002 1.7742375732421876 0.08550000000000002 1.7770875732421876 0.07770000000000002 C 1.7815875732421875 0.07620000000000002 1.7853375732421877 0.07410000000000003 1.7893875732421876 0.07110000000000002 C 1.7904375732421876 0.07035000000000002 1.7908875732421876 0.06990000000000002 1.7908875732421876 0.06915000000000002 C 1.7908875732421876 0.06870000000000001 1.7904375732421876 0.06825000000000002 1.7899875732421875 0.06825000000000002 C 1.7893875732421876 0.06825000000000002 1.7890875732421876 0.06855000000000003 1.7881875732421877 0.06915000000000002 C 1.7848875732421876 0.07125000000000002 1.7818875732421877 0.07290000000000002 1.7785875732421876 0.07395000000000002 C 1.7865375732421875 0.05400000000000002 1.8007875732421876 0.03285000000000002 1.8114375732421877 0.02010000000000002 C 1.8121875732421877 0.01920000000000001 1.8130875732421876 0.018150000000000013 1.8130875732421876 0.01695000000000002 C 1.8130875732421876 0.01605000000000001 1.8120375732421876 0.014850000000000016 1.8102375732421876 0.014850000000000016 C 1.8051375732421877 0.014850000000000016 1.8003375732421876 0.015600000000000017 1.7958375732421876 0.016650000000000012 C 1.7815875732421875 0.006900000000000017 1.7640375732421876 1.3877787807814457e-17 1.7460375732421876 1.3877787807814457e-17 C 1.7184375732421877 1.3877787807814457e-17 1.6989375732421876 0.01365000000000001 1.6989375732421876 0.03315000000000001 C 1.6989375732421876 0.047250000000000014 1.7113875732421877 0.05595000000000002 1.7206875732421876 0.05595000000000002 C 1.7220375732421875 0.05595000000000002 1.7227875732421876 0.05550000000000002 1.7227875732421876 0.05460000000000002 C 1.7227875732421876 0.05415000000000002 1.7224875732421876 0.053850000000000016 1.7214375732421876 0.05370000000000002 M 1.6680375732421875 0.13470000000000004 C 1.6530375732421876 0.13470000000000004 1.6419375732421877 0.12435000000000002 1.6419375732421877 0.10935000000000003 C 1.6419375732421877 0.08220000000000002 1.6684875732421875 0.07155000000000002 1.6974375732421876 0.07155000000000002 C 1.7094375732421876 0.07155000000000002 1.7215875732421877 0.07380000000000002 1.7329875732421876 0.07590000000000002 C 1.7136375732421876 0.10545000000000002 1.6957875732421877 0.13470000000000004 1.6680375732421875 0.13470000000000004 M 1.7631375732421877 0.07605000000000002 C 1.7563875732421876 0.07605000000000002 1.7482875732421876 0.07470000000000002 1.7395875732421877 0.07320000000000002 C 1.7554875732421875 0.049200000000000015 1.7724375732421875 0.02640000000000002 1.7956875732421875 0.01995000000000001 L 1.7977875732421875 0.021300000000000013 C 1.7986875732421876 0.021900000000000017 1.7991375732421875 0.02220000000000001 1.7995875732421875 0.02220000000000001 C 1.8000375732421876 0.02220000000000001 1.8007875732421876 0.021150000000000016 1.8007875732421876 0.02070000000000001 C 1.8007875732421876 0.020250000000000018 1.8003375732421876 0.019800000000000012 1.7998875732421875 0.019500000000000017 L 1.7992875732421876 0.01920000000000001 C 1.8024375732421876 0.01860000000000002 1.8055875732421875 0.018150000000000013 1.8090375732421875 0.018150000000000013 C 1.7980875732421877 0.03015000000000001 1.7817375732421876 0.05355000000000002 1.7734875732421875 0.07530000000000002 C 1.7703375732421875 0.07590000000000002 1.7668875732421876 0.07605000000000002 1.7631375732421877 0.07605000000000002 M 1.8396431396484376 0.05670000000000002 C 1.8307931396484376 0.05565000000000002 1.8217931396484377 0.04815000000000002 1.8217931396484377 0.036150000000000015 C 1.8217931396484377 0.01860000000000002 1.8403931396484376 0.00675000000000002 1.8642431396484376 0.00675000000000002 C 1.8798431396484376 0.00675000000000002 1.8951431396484377 0.01230000000000002 1.9080431396484376 0.019500000000000017 C 1.9063931396484377 0.022050000000000014 1.9045931396484377 0.02535000000000001 1.9023431396484376 0.029100000000000015 C 1.8802931396484377 0.06675000000000002 1.8447431396484377 0.13440000000000002 1.8027431396484377 0.13440000000000002 C 1.7886431396484377 0.13440000000000002 1.7821931396484376 0.12525000000000003 1.7809931396484375 0.11940000000000002 C 1.7808431396484377 0.11850000000000002 1.7805431396484377 0.11790000000000003 1.7799431396484375 0.11790000000000003 C 1.7791931396484377 0.11790000000000003 1.7787431396484377 0.11850000000000002 1.7787431396484377 0.11925000000000002 C 1.7787431396484377 0.12600000000000003 1.7869931396484375 0.13845000000000002 1.8025931396484376 0.13845000000000002 C 1.8475931396484377 0.13845000000000002 1.8840431396484376 0.06765000000000002 1.9083431396484376 0.026550000000000018 C 1.9083431396484376 0.026550000000000018 1.9009931396484376 0.06060000000000002 1.9006931396484377 0.10380000000000002 C 1.9006931396484377 0.10950000000000003 1.9011431396484377 0.11295000000000002 1.9024931396484377 0.11295000000000002 C 1.9047431396484376 0.11295000000000002 1.9068431396484375 0.11235000000000002 1.9077431396484377 0.11010000000000003 C 1.9122431396484376 0.09960000000000002 1.9444931396484377 0.039300000000000015 1.9705931396484377 0.01695000000000002 C 1.9629431396484376 0.03045000000000002 1.9459931396484376 0.06225000000000002 1.9459931396484376 0.10020000000000003 C 1.9459931396484376 0.11775000000000002 1.9549931396484377 0.12435000000000002 1.9639931396484376 0.12435000000000002 C 1.9707431396484376 0.12435000000000002 1.9750931396484377 0.12090000000000002 1.9750931396484377 0.12030000000000002 C 1.9750931396484377 0.11970000000000003 1.9746431396484376 0.11910000000000003 1.9740431396484377 0.11910000000000003 C 1.9734431396484378 0.11910000000000003 1.9708931396484377 0.12150000000000002 1.9656431396484377 0.12150000000000002 C 1.9572431396484378 0.12150000000000002 1.9501931396484378 0.11370000000000002 1.9501931396484378 0.10020000000000003 C 1.9501931396484378 0.06465000000000001 1.9647431396484376 0.03405000000000001 1.9743431396484377 0.01920000000000001 C 1.9762931396484376 0.01620000000000002 1.9783931396484378 0.013350000000000015 1.9783931396484378 0.012150000000000008 C 1.9783931396484378 0.01125000000000001 1.9779431396484377 0.01050000000000001 1.9764431396484377 0.01050000000000001 C 1.9747931396484377 0.01050000000000001 1.9726931396484377 0.011700000000000016 1.9693931396484377 0.013950000000000018 C 1.9455431396484377 0.03015000000000001 1.9086431396484376 0.09750000000000002 1.9048931396484376 0.10695000000000002 C 1.9048931396484376 0.06720000000000001 1.9107431396484376 0.03600000000000002 1.9135931396484376 0.022800000000000015 L 1.9159931396484375 0.024300000000000016 C 1.9168931396484377 0.02490000000000002 1.9173431396484377 0.025200000000000014 1.9177931396484376 0.025200000000000014 C 1.9182431396484376 0.025200000000000014 1.9189931396484377 0.02415000000000002 1.9189931396484377 0.023700000000000013 C 1.9189931396484377 0.02325000000000002 1.9185431396484376 0.022800000000000015 1.9180931396484375 0.02250000000000002 L 1.9141931396484377 0.019800000000000012 C 1.9147931396484377 0.017400000000000013 1.9150931396484376 0.01620000000000002 1.9150931396484376 0.01590000000000001 C 1.9150931396484376 0.014700000000000019 1.9141931396484377 0.01365000000000001 1.9123931396484377 0.01365000000000001 C 1.9119431396484377 0.01365000000000001 1.9110431396484375 0.014850000000000016 1.9096931396484376 0.01680000000000001 C 1.8961931396484377 0.008550000000000016 1.8804431396484376 0.0030000000000000165 1.8642431396484376 0.0030000000000000165 C 1.8366431396484377 0.0030000000000000165 1.8171431396484377 0.016650000000000012 1.8171431396484377 0.036150000000000015 C 1.8171431396484377 0.05025000000000002 1.8295931396484377 0.058950000000000016 1.8388931396484376 0.058950000000000016 C 1.8402431396484376 0.058950000000000016 1.8409931396484376 0.05850000000000002 1.8409931396484376 0.05760000000000002 C 1.8409931396484376 0.05715000000000002 1.8406931396484376 0.05685000000000002 1.8396431396484376 0.05670000000000002 M 2.0478400634765626 0.06285000000000002 C 2.0431900634765627 0.06285000000000002 2.0389900634765628 0.05760000000000002 2.0382400634765627 0.05160000000000002 L 2.0424400634765627 0.05160000000000002 C 2.066740063476563 0.05160000000000002 2.101390063476563 0.038550000000000015 2.101390063476563 0.021900000000000017 C 2.101390063476563 0.01365000000000001 2.0944900634765626 0.009750000000000009 2.085040063476563 0.009750000000000009 C 2.0635900634765627 0.009750000000000009 2.035540063476563 0.02535000000000001 2.0338900634765626 0.04740000000000002 C 2.0149900634765627 0.04530000000000002 2.0001400634765627 0.03585000000000002 2.0001400634765627 0.023400000000000018 C 2.0001400634765627 0.011850000000000013 2.0119900634765626 0.0061500000000000166 2.0227900634765628 0.0061500000000000166 C 2.0353900634765627 0.0061500000000000166 2.0409400634765626 0.012450000000000017 2.041990063476563 0.012450000000000017 C 2.042740063476563 0.012450000000000017 2.0430400634765626 0.012150000000000008 2.0430400634765626 0.011400000000000007 C 2.0430400634765626 0.010350000000000012 2.0353900634765627 0.002850000000000019 2.0227900634765628 0.002850000000000019 C 2.009740063476563 0.002850000000000019 1.9963900634765628 0.010200000000000015 1.9963900634765628 0.023400000000000018 C 1.9963900634765628 0.03795000000000002 2.0127400634765626 0.04890000000000002 2.0338900634765626 0.051150000000000015 C 2.0344900634765626 0.05760000000000002 2.038540063476563 0.06255000000000002 2.042740063476563 0.06465000000000001 C 2.023690063476563 0.06840000000000002 1.9854400634765628 0.08415000000000002 1.9854400634765628 0.11775000000000002 C 1.9854400634765628 0.13365000000000002 1.9977400634765627 0.14505 2.016790063476563 0.14505 C 2.048290063476563 0.14505 2.0859400634765626 0.11595000000000003 2.0859400634765626 0.09135000000000001 C 2.0859400634765626 0.08340000000000002 2.079940063476563 0.07785000000000002 2.072440063476563 0.07785000000000002 C 2.056240063476563 0.07785000000000002 2.040490063476563 0.09435000000000002 2.040490063476563 0.10245000000000003 C 2.040490063476563 0.10350000000000002 2.0407900634765626 0.10410000000000003 2.0415400634765626 0.10410000000000003 C 2.0422900634765626 0.10410000000000003 2.0424400634765627 0.10365000000000002 2.042740063476563 0.10215000000000002 C 2.044240063476563 0.09480000000000002 2.057440063476563 0.08130000000000003 2.072290063476563 0.08130000000000003 C 2.0776900634765627 0.08130000000000003 2.0817400634765626 0.08520000000000003 2.0817400634765626 0.09135000000000001 C 2.0817400634765626 0.11400000000000002 2.046940063476563 0.14115000000000003 2.016490063476563 0.14115000000000003 C 2.000590063476563 0.14115000000000003 1.9897900634765628 0.13140000000000002 1.9897900634765628 0.11790000000000003 C 1.9897900634765628 0.08595000000000003 2.027140063476563 0.07080000000000002 2.0472400634765626 0.06705000000000003 C 2.0472400634765626 0.06705000000000003 2.051890063476563 0.06855000000000003 2.053840063476563 0.06855000000000003 C 2.0572900634765627 0.06855000000000003 2.0598400634765626 0.06720000000000001 2.0598400634765626 0.06525000000000002 C 2.0598400634765626 0.06330000000000002 2.0577400634765626 0.062100000000000016 2.054740063476563 0.062100000000000016 C 2.051740063476563 0.062100000000000016 2.0485900634765626 0.06285000000000002 2.0478400634765626 0.06285000000000002 M 2.0851900634765625 0.01365000000000001 C 2.0911900634765628 0.01365000000000001 2.097190063476563 0.01545000000000002 2.097190063476563 0.02145000000000001 C 2.097190063476563 0.03645000000000001 2.064640063476563 0.04785000000000002 2.042590063476563 0.04785000000000002 C 2.0410900634765627 0.04785000000000002 2.0395900634765627 0.04785000000000002 2.0380900634765626 0.04770000000000002 C 2.0395900634765627 0.02715000000000002 2.065990063476563 0.01365000000000001 2.0851900634765625 0.01365000000000001" fill="#fffdfa" fill-rule="nonzero"></path></g><g></g></g><defs><clipPath id="SvgjsClipPath16803"><path d=" M -21.05866574281625 -39.399000556045436 h 44.21182001102312 v 37.899000556045436 h -44.21182001102312 Z"></path></clipPath><clipPath id="SvgjsClipPath16801333a640e-0814-425b-917a-cc80c551ad73"><path d=" M -21.05866574281625 -39.39900055604543 L 23.153154268206873 -39.39900055604543 L 23.153154268206873 -1.5 L -21.05866574281625 -1.5 Z"></path></clipPath></defs></svg>